Coordinates
version=1
nRows=13
nColumns=40
inDegrees=yes

Units are S.I. units (second, meters, Newtons, ...)
Angles are in degrees.

endheader
time	pelvis_tilt	pelvis_list	pelvis_rotation	pelvis_tx	pelvis_ty	pelvis_tz	hip_flexion_r	hip_adduction_r	hip_rotation_r	knee_angle_r	knee_angle_r_beta	ankle_angle_r	subtalar_angle_r	mtp_angle_r	hip_flexion_l	hip_adduction_l	hip_rotation_l	knee_angle_l	knee_angle_l_beta	ankle_angle_l	subtalar_angle_l	mtp_angle_l	lumbar_extension	lumbar_bending	lumbar_rotation	arm_flex_r	arm_add_r	arm_rot_r	elbow_flex_r	pro_sup_r	wrist_flex_r	wrist_dev_r	arm_flex_l	arm_add_l	arm_rot_l	elbow_flex_l	pro_sup_l	wrist_flex_l	wrist_dev_l
     56.09000000	     -5.32852807	     -4.31839024	     -1.77355720	      0.91635589	      0.91543293	      0.43665177	     28.00450050	     -6.62075256	     -2.53114904	     69.37350975	     69.37350975	     -1.24604270	    -19.15155562	     11.17268690	     20.16421350	     -2.93379242	     -1.87153463	     32.05954481	     32.05954481	     19.33178263	    -17.22963705	      7.99046596	    -11.26920207	      6.27183063	      2.03365836	      7.79697206	    -12.18398708	    -17.15509905	     20.92399380	     47.26866996	      0.00000000	      0.00000000	     19.36062736	    -14.25061723	     11.31444895	     40.10013986	     45.84623784	      0.00000000	      0.00000000
     56.10885714	     -5.22258019	     -4.21759476	     -2.16963128	      0.91616313	      0.91540737	      0.43561661	     29.42842822	     -6.60736513	     -2.35209816	     69.71411680	     69.71411680	     -0.32671279	    -19.23873466	     11.81934750	     19.53372273	     -2.83110112	     -2.27484286	     31.94877995	     31.94877995	     19.69696712	    -17.21837385	      7.92751123	    -11.36876875	      6.34932104	      1.83487552	      5.14546181	    -12.13316309	    -17.14062008	     19.88226661	     47.29241514	      0.00000000	      0.00000000	     20.81852741	    -14.61462241	     10.78121176	     41.27258273	     45.93238763	      0.00000000	      0.00000000
     56.12771429	     -5.14243981	     -4.23762775	     -2.59914620	      0.91591291	      0.91583463	      0.43514847	     30.62692241	     -6.28976308	     -2.19793495	     69.24826626	     69.24826626	      1.02190001	    -19.24996516	     12.71712183	     18.82444312	     -2.89577184	     -2.68158495	     31.64603158	     31.64603158	     19.99947397	    -17.11648022	      7.84967480	    -11.49337345	      6.51703420	      1.80618506	      2.49143247	    -12.10555482	    -17.09363531	     19.20195325	     47.29869426	      0.00000000	      0.00000000	     22.21228681	    -14.91919428	      9.89617447	     42.87139109	     46.05763619	      0.00000000	      0.00000000
     56.14657143	     -5.16107406	     -4.24882649	     -3.05946579	      0.91549342	      0.91663425	      0.43520284	     31.69277774	     -5.85161273	     -2.03486266	     67.95585908	     67.95585908	      2.36708014	    -19.20148713	     12.91656244	     18.09848279	     -2.99877636	     -3.17386491	     31.08501544	     31.08501544	     20.15595653	    -16.92434019	      7.76482727	    -11.53281615	      6.61243875	      1.74009039	      0.03636762	    -12.03749078	    -17.04508235	     18.77430819	     47.29310692	      0.00000000	      0.00000000	     23.53498559	    -15.30466550	      8.87545077	     44.47308289	     46.19226947	      0.00000000	      0.00000000
     56.16542857	     -5.25697586	     -4.32205321	     -3.54325688	      0.91498945	      0.91778597	      0.43577642	     32.53747551	     -5.23875733	     -1.90965536	     65.80162475	     65.80162475	      3.57875209	    -19.06194801	     12.44287221	     17.34500633	     -3.20554555	     -3.71114001	     30.31457388	     30.31457388	     20.19816382	    -16.64686206	      7.61527235	    -11.52413051	      6.73744653	      1.73283082	     -2.33167631	    -11.93985355	    -16.98613947	     18.68302405	     47.27016413	      0.00000000	      0.00000000	     24.77460359	    -15.64124996	      7.58363520	     46.31578395	     46.35158994	      0.00000000	      0.00000000
     56.18428571	     -5.50081449	     -4.42751595	     -4.02169185	      0.91437416	      0.91907941	      0.43671335	     33.15919569	     -4.59962365	     -1.91362765	     62.68935897	     62.68935897	      3.94755209	    -18.83681001	      9.29397344	     16.64636743	     -3.47172971	     -4.27599715	     29.31100900	     29.31100900	     19.88614476	    -16.38499315	      6.82176218	    -11.40687024	      6.88756991	      1.27451041	     -4.85865135	    -11.84190057	    -16.43031176	     20.49698889	     47.11241986	      0.00000000	      0.00000000	     25.19875811	    -15.95583013	      4.12014822	     49.33647171	     46.70973697	      0.00000000	      0.00000000
     56.20314286	     -5.74284699	     -4.52089949	     -4.52834993	      0.91363762	      0.92064029	      0.43818016	     33.52129840	     -3.86390131	     -1.83832289	     58.88532611	     58.88532611	      4.49109479	    -18.30138853	      7.11426229	     15.88177792	     -3.75593163	     -4.89729850	     28.20207705	     28.20207705	     19.75282937	    -15.93803033	      6.68136908	    -11.32734979	      6.94916644	      1.58348937	     -6.89652274	    -11.74301146	    -16.00477737	     20.44031431	     47.05619440	      0.00000000	      0.00000000	     26.53683288	    -16.10284568	      2.91501573	     51.18877464	     46.84595267	      0.00000000	      0.00000000
     56.22200000	     -6.05280585	     -4.66752663	     -4.99164850	      0.91297313	      0.92217381	      0.43985604	     33.46103075	     -3.23107950	     -2.06932406	     54.06006206	     54.06006206	      3.48566085	    -17.71155631	      0.63946423	     15.11240142	     -4.08094353	     -5.48273675	     26.93153828	     26.93153828	     19.34824498	    -15.60878411	      6.00695674	    -11.13566303	      7.09310274	      1.13328951	     -8.94523841	    -11.69155048	    -15.03633059	     22.32258019	     46.85852469	      0.00000000	      0.00000000	     27.11657575	    -16.62628533	      0.39458349	     53.93675710	     47.08607464	      0.00000000	      0.00000000
     56.24085714	     -6.32189908	     -4.77104516	     -5.44252650	      0.91226176	      0.92371549	      0.44194217	     33.24234433	     -2.56665003	     -2.21097419	     49.07213723	     49.07213723	      4.24045512	    -15.75192816	     -0.18190962	     14.30441314	     -4.36872087	     -6.07013503	     25.69347848	     25.69347848	     19.24492607	    -15.09278677	      6.11698120	    -10.99018014	      7.14096603	      1.37175234	    -10.32774069	    -11.54703951	    -14.82160375	     22.15482945	     46.83237156	      0.00000000	      0.00000000	     28.61235597	    -17.03007190	     -0.14484888	     55.31390561	     47.15667497	      0.00000000	      0.00000000
     56.25971429	     -6.71109664	     -4.81617567	     -5.83815624	      0.91162067	      0.92475136	      0.44412444	     32.69459480	     -2.11517238	     -2.69279563	     43.26389934	     43.26389934	      3.32707095	    -13.67909252	     -5.00759136	     13.65188873	     -4.59786433	     -6.63600932	     24.46927112	     24.46927112	     18.86658030	    -14.65483262	      5.39391657	    -10.75672929	      7.14119538	      1.23558056	    -12.22330550	    -11.48243835	    -13.98236101	     24.51528611	     46.62528383	      0.00000000	      0.00000000	     29.11546261	    -17.42130589	     -2.16970837	     58.67226086	     47.35161636	      0.00000000	      0.00000000
     56.27857143	     -7.00309642	     -4.80280956	     -6.20960261	      0.91120791	      0.92560226	      0.44656181	     31.92432515	     -1.75635437	     -3.33957198	     37.54848859	     37.54848859	      3.66190319	    -10.10105912	     -5.52020516	     12.88711065	     -4.75805420	     -7.24423007	     23.27226597	     23.27226597	     18.74893580	    -14.10166629	      5.28418679	    -10.52288915	      7.06069138	      1.48357322	    -13.31468203	    -11.33210091	    -13.50065241	     24.80670347	     46.55934501	      0.00000000	      0.00000000	     30.47573584	    -17.72406267	     -2.74820672	     60.25637935	     47.42522658	      0.00000000	      0.00000000
     56.29742857	     -7.26121846	     -4.82690002	     -6.49273838	      0.91099035	      0.92604205	      0.44922869	     30.85452579	     -1.27623684	     -3.95346656	     31.71576346	     31.71576346	      3.80250064	     -6.65769110	     -5.04531179	     12.18558410	     -4.94140075	     -7.65925949	     22.27893339	     22.27893339	     18.73521227	    -13.65842816	      5.18936730	    -10.30517202	      7.05091705	      1.63943882	    -14.06697472	    -11.16034433	    -13.33896676	     25.11062820	     46.52309803	      0.00000000	      0.00000000	     31.78130561	    -18.12998830	     -3.21394087	     61.68924994	     47.49097308	      0.00000000	      0.00000000
     56.31628571	     -7.45836832	     -4.74110332	     -6.71522120	      0.91116562	      0.92597303	      0.45196919	     29.66441060	     -0.95883503	     -4.75792126	     26.21750100	     26.21750100	      3.71773171	     -2.96094544	     -4.11572901	     11.45029547	     -4.99866361	     -8.07258553	     21.37636811	     21.37636811	     18.80797272	    -13.19044888	      4.94708513	    -10.05622402	      6.93809955	      1.83370619	    -14.75920739	    -10.98991972	    -13.21651690	     25.55692513	     46.48410331	      0.00000000	      0.00000000	     32.95387021	    -18.39667316	     -3.68469005	     63.31695672	     47.55941117	      0.00000000	      0.00000000
